# xmcd CD database file
#
# Track frame offsets:
#	150
#	20438
#	35035
#	54765
#	73150
#	98635
#	117405
#	144013
#	164633
#	187770
#	212285
#
# Disc length: 3028 seconds
#
# Revision: 0
# Processed by: cddbd v1.5.1PL2 Copyright (c) Steve Scherf et al.
# Submitted via: CDex 1.51
#
DISCID=8c0bd20b
DTITLE=テイチクアワー - 一期一会
DYEAR=2004
DGENRE=Blues
TTITLE0=津軽海峡冬景色　/　石川　さゆり
TTITLE1=すみれ色の涙　/　岩崎　宏美
TTITLE2=二輪草　/　川中　美幸
TTITLE3=恋唄　/　前川　清
TTITLE4=トーキョー・トワイライト　/　チェウニ
TTITLE5=孫　/　大泉　逸郎
TTITLE6=感謝状〜母へのメッセージ〜　/　島津　亜矢
TTITLE7=花も嵐も　/　山本　譲二
TTITLE8=涙そうそう　/　BEGIN
TTITLE9=珍島物語　/　天童　よしみ
TTITLE10=どしゃぶりの雨の中で　/　和田　アキ子
EXTD=YEAR: 2004.01.01
EXTT0=
EXTT1=
EXTT2=
EXTT3=
EXTT4=
EXTT5=
EXTT6=
EXTT7=
EXTT8=
EXTT9=
EXTT10=
PLAYORDER=
